<svg width="18" height="18" viewBox="0 0 18 18" fill="none" xmlns="http://www.w3.org/2000/svg">
<path d="M8.09961 5.17153V5.67153H9.09961V5.17153H8.09961ZM9.09961 5.1601V4.6601H8.09961V5.1601H9.09961ZM9.09961 12.6001V8.02867H8.09961V12.6001H9.09961ZM9.09961 5.17153V5.1601H8.09961V5.17153H9.09961ZM6.88532 9.1001H8.59961V8.1001H6.88532V9.1001ZM6.88532 12.5287H10.3139V11.5287H6.88532V12.5287ZM8.59961 1.1001C12.7417 1.1001 16.0996 4.45796 16.0996 8.6001L17.0996 8.6001C17.0996 3.90568 13.294 0.100098 8.59961 0.100098L8.59961 1.1001ZM1.09961 8.6001C1.09961 4.45796 4.45747 1.1001 8.59961 1.1001L8.59961 0.100098C3.90519 0.100097 0.0996098 3.90568 0.0996094 8.6001L1.09961 8.6001ZM8.59961 16.1001C4.45747 16.1001 1.09961 12.7422 1.09961 8.6001L0.0996094 8.6001C0.099609 13.2945 3.90519 17.1001 8.59961 17.1001L8.59961 16.1001ZM8.59961 17.1001C13.294 17.1001 17.0996 13.2945 17.0996 8.6001L16.0996 8.6001C16.0996 12.7422 12.7417 16.1001 8.59961 16.1001L8.59961 17.1001Z" fill="#393939"/>
</svg>
