<svg width="19" height="19" viewBox="0 0 19 19" fill="none" xmlns="http://www.w3.org/2000/svg">
<path fill-rule="evenodd" clip-rule="evenodd" d="M7.73627 1.56665L7.63881 2.06158L7.26595 3.87261C6.66981 4.10026 6.12921 4.42307 5.64074 4.80589L3.81834 4.19655L3.32875 4.04478L3.07488 4.48195L1.82027 6.57949L1.56641 7.01674L1.93814 7.34178L3.34801 8.54117C3.29701 8.8549 3.23128 9.16521 3.23128 9.4948C3.23128 9.82438 3.29701 10.1348 3.34801 10.4485L1.93814 11.6479L1.56641 11.9729L1.82027 12.4101L3.07488 14.5077L3.32875 14.946L3.81834 14.7931L5.64074 14.1838C6.12921 14.5666 6.66981 14.8893 7.26595 15.117L7.63881 16.928L7.73627 17.423H11.2621L11.3607 16.928L11.7324 15.117C12.3285 14.8893 12.8691 14.5666 13.3576 14.1838L15.18 14.7931L15.6696 14.946L15.9246 14.5077L17.1781 12.4101L17.4331 11.9729L17.0602 11.6479L15.6503 10.4485C15.7025 10.1348 15.7671 9.82438 15.7671 9.4948C15.7671 9.16521 15.7025 8.8549 15.6503 8.54117L17.0602 7.34178L17.4331 7.01674L17.1781 6.57949L15.9246 4.48195L15.6696 4.04478L15.18 4.19655L13.3576 4.80589C12.8691 4.42307 12.3285 4.10026 11.7324 3.87261L11.3607 2.06158L11.2621 1.56665H7.73627Z" stroke="#393939" stroke-width="2" stroke-linecap="square" stroke-linejoin="round"/>
<path fill-rule="evenodd" clip-rule="evenodd" d="M11.766 9.4948C11.766 10.7452 10.7505 11.76 9.49932 11.76C8.24812 11.76 7.23266 10.7452 7.23266 9.4948C7.23266 8.24441 8.24812 7.22965 9.49932 7.22965C10.7505 7.22965 11.766 8.24441 11.766 9.4948Z" stroke="#393939" stroke-width="2" stroke-linecap="square" stroke-linejoin="round"/>
</svg>
